<svg xmlns="http://www.w3.org/2000/svg" viewBox="0 0 16 16" width="16" height="16">
  <!-- Dark Navy Base -->
  <rect width="16" height="16" rx="3" fill="#08111F" />
  
  <!-- Simplified AI Brain Icon (Flat Vector) -->
  <path d="M5 4.5C4.2 4.5 3.5 5.2 3.5 6C3.5 6.4 3.7 6.8 4 7.1C3.7 7.4 3.5 7.8 3.5 8.2C3.5 9 4.2 9.7 5 9.7H5.5" stroke="#38BDF8" stroke-width="1.25" stroke-linecap="round" fill="none" />
  <path d="M11 4.5C11.8 4.5 12.5 5.2 12.5 6C12.5 6.4 12.3 6.8 12 7.1C12.3 7.4 12.5 7.8 12.5 8.2C12.5 9 11.8 9.7 11 9.7H10.5" stroke="#38BDF8" stroke-width="1.25" stroke-linecap="round" fill="none" />
  
  <!-- Central Neural Connection / Core -->
  <path d="M8 3.5V12.5" stroke="#3B82F6" stroke-width="1.5" stroke-linecap="round" />
  <circle cx="8" cy="8" r="1.5" fill="#38BDF8" />
</svg>
