<svg xmlns="http://www.w3.org/2000/svg" viewBox="0 0 32 32" width="32" height="32">
  <defs>
    <linearGradient id="aiBrainGrad" x1="0%" y1="0%" x2="100%" y2="100%">
      <stop offset="0%" stop-color="#60A5FA" />
      <stop offset="50%" stop-color="#3B82F6" />
      <stop offset="100%" stop-color="#38BDF8" />
    </linearGradient>
    <linearGradient id="highlightGrad" x1="0%" y1="0%" x2="0%" y2="100%">
      <stop offset="0%" stop-color="#FFFFFF" stop-opacity="0.9" />
      <stop offset="100%" stop-color="#FFFFFF" stop-opacity="0.3" />
    </linearGradient>
  </defs>

  <!-- Rounded Square Dark Navy Background -->
  <rect x="1" y="1" width="30" height="30" rx="7" fill="#08111F" stroke="#3B82F6" stroke-width="1.5" stroke-opacity="0.6" />

  <!-- Minimal AI Brain Icon (Vector) -->
  <!-- Left Hemisphere -->
  <path d="M10 10C7.5 10 6 11.5 6 14C6 15.5 6.8 16.8 8 17.5C6.8 18.2 6 19.5 6 21C6 23.5 7.5 25 10 25C11.2 25 12.2 24.5 13 23.5" stroke="url(#aiBrainGrad)" stroke-width="2" stroke-linecap="round" fill="none" />
  
  <!-- Right Hemisphere -->
  <path d="M22 10C24.5 10 26 11.5 26 14C26 15.5 25.2 16.8 24 17.5C25.2 18.2 26 19.5 26 21C26 23.5 24.5 25 22 25C20.8 25 19.8 24.5 19 23.5" stroke="url(#aiBrainGrad)" stroke-width="2" stroke-linecap="round" fill="none" />

  <!-- Central Neural Split / Core & Circuit Node -->
  <path d="M16 8V24" stroke="url(#highlightGrad)" stroke-width="2" stroke-linecap="round" />
  <circle cx="16" cy="16" r="2.5" fill="#38BDF8" />
  <circle cx="16" cy="16" r="1" fill="#FFFFFF" />
  
  <!-- Circuit Nodes on Hemispheres -->
  <circle cx="10" cy="14" r="1" fill="url(#aiBrainGrad)" />
  <circle cx="22" cy="14" r="1" fill="url(#aiBrainGrad)" />
  <circle cx="10" cy="21" r="1" fill="url(#aiBrainGrad)" />
  <circle cx="22" cy="21" r="1" fill="url(#aiBrainGrad)" />
</svg>
