<svg xmlns="http://www.w3.org/2000/svg" viewBox="0 0 32 32" width="100%" height="100%">
  <!-- 
    Safari Pinned Tab Icon
    - Single Path
    - Solid Black
    - Clockwise outer brain silhouette with a counter-clockwise inner AI circuit cutout
  -->
  <path fill="#000000" fill-rule="nonzero" d="
    M16,4 
    C21,2 28,5 28,12 
    C28,13.5 27.5,15 27,16 
    C29,18 29,23 26,26 
    C24,28 20,28 18,26 
    L16,24 
    L14,26 
    C12,28 8,28 6,26 
    C3,23 3,18 5,16 
    C4.5,15 4,13.5 4,12 
    C4,5 11,2 16,4 
    Z 
    M15,14 
    L15,7 
    A2,2 0 1,0 17,7 
    L17,14 
    L20,14 
    A2,2 0 1,0 20,16 
    L17,16 
    L17,20 
    A2,2 0 1,0 15,20 
    L15,16 
    L12,16 
    A2,2 0 1,0 12,14 
    Z" 
  />
</svg>
