<svg xmlns="http://www.w3.org/2000/svg" viewBox="0 0 512 512" width="512" height="512">
  <defs>
    <!-- Google Brand Color Gradients -->
    <linearGradient id="googleRed" x1="0%" y1="0%" x2="100%" y2="100%">
      <stop offset="0%" stop-color="#EA4335" />
      <stop offset="100%" stop-color="#C5221F" />
    </linearGradient>

    <linearGradient id="googleYellow" x1="0%" y1="0%" x2="100%" y2="100%">
      <stop offset="0%" stop-color="#FBBC05" />
      <stop offset="100%" stop-color="#F29900" />
    </linearGradient>

    <linearGradient id="googleGreen" x1="0%" y1="0%" x2="100%" y2="100%">
      <stop offset="0%" stop-color="#34A853" />
      <stop offset="100%" stop-color="#1E8E3E" />
    </linearGradient>

    <linearGradient id="googleBlue" x1="0%" y1="0%" x2="100%" y2="100%">
      <stop offset="0%" stop-color="#4285F4" />
      <stop offset="100%" stop-color="#1A73E8" />
    </linearGradient>

    <!-- Clean Modern Drop Shadow -->
    <filter id="googleShadow" x="-20%" y="-20%" width="140%" height="140%">
      <feDropShadow dx="0" dy="8" stdDeviation="12" flood-color="#000000" flood-opacity="0.18"/>
    </filter>
  </defs>

  <!-- Clean White Circular Badge Background for Optimal Contrast -->
  <circle cx="256" cy="256" r="230" fill="#FFFFFF" filter="url(#googleShadow)" />

  <!-- Official Google 'G' Multi-Color Vector Path Structure -->
  <g transform="translate(106, 106) scale(12.5)">
    <!-- Blue Left/Top Arm -->
    <path d="M15 15v-6h11.24c.48 1.15.76 2.45.76 4.02 0 4.14-2.84 9.98-8 9.98-4.69 0-8.5-3.81-8.5-8.5s3.81-8.5 8.5-8.5c2.31 0 4.29.85 5.8 2.23l4.51-4.51C23.36 1.88 19.45 0 15 0 6.72 0 0 6.72 0 15s6.72 15 15 15c8.28 0 14.5-6.22 14.5-14.5 0-.98-.1-1.92-.26-2.84H15z" fill="url(#googleBlue)" />

    <!-- Green Bottom-Right Extension -->
    <path d="M29.5 15.5c0-.98-.1-1.92-.26-2.84H15v6h8.24c-.66 3.09-3.24 5-6.24 5-3.87 0-7-3.13-7-7s3.13-7 7-7c1.76 0 3.37.66 4.61 1.74l4.24-4.24C23.63 4.19 19.57 2.5 15 2.5 7.82 2.5 2 8.32 2 15.5s5.82 13 13 13c7.18 0 13-5.82 13-13h-.5z" fill="url(#googleGreen)" opacity="0" />

    <!-- Red Top-Right Segment -->
    <path d="M23.8 5.73l-4.51 4.51C17.79 8.85 15.81 8 13.5 8c-4.14 0-7.5 3.36-7.5 7.5s3.36 7.5 7.5 7.5c3 0 5.58-1.91 6.24-5H15v-6h14.24c.16.92.26 1.86.26 2.84 0 7.73-5.27 13.16-13 13.16C6.72 28.5 0 21.78 0 13.5S6.72 1.5 15 1.5c4.45 0 8.36 1.88 11.24 4.93z" fill="url(#googleRed)" />

    <!-- Yellow Bottom-Left Segment -->
    <path d="M15 26.5c-3 0-5.58-1.91-6.24-5H2.52C5.03 26.5 9.58 29.5 15 29.5c4.45 0 8.36-1.88 11.24-4.93l-4.24-4.24c-1.24 1.08-2.85 1.74-4.61 1.74z" fill="url(#googleYellow)" />
  </g>
</svg>
